<?xml version="1.0" encoding="utf-8"?>
<!-- Generator: Adobe Illustrator 19.0.0, SVG Export Plug-In . SVG Version: 6.00 Build 0)  -->
<svg version="1.1" baseProfile="tiny" id="Layer_1" xmlns="http://www.w3.org/2000/svg" xmlns:xlink="http://www.w3.org/1999/xlink"
	 x="0px" y="0px" viewBox="0 0 64.7 60.4" xml:space="preserve">
<path id="XMLID_438_" fill="#F7F7F8" stroke="#057AFF" stroke-width="0.5" stroke-miterlimit="10" d="M59.1,57.7H4.8
	c-1.4,0-2.5-1.1-2.5-2.5v-50c0-1.4,1.1-2.5,2.5-2.5h54.3c1.4,0,2.5,1.1,2.5,2.5v50C61.6,56.6,60.5,57.7,59.1,57.7z"/>
<path id="XMLID_422_" fill="#73BF45" d="M16.5,46.3h6.2v-6.2h-6.2V46.3z M24.2,46.3h6.9v-6.2h-6.9V46.3z M16.5,38.7h6.2v-6.9h-6.2
	V38.7z M24.2,38.7h6.9v-6.9h-6.9V38.7z M16.5,30.4h6.2v-6.2h-6.2V30.4z M32.5,46.3h6.9v-6.2h-6.9V46.3z M24.2,30.4h6.9v-6.2h-6.9
	V30.4z M40.8,46.3H47v-6.2h-6.2V46.3z M32.5,38.7h6.9v-6.9h-6.9V38.7z M24.8,20v-6.2c0-0.2-0.1-0.3-0.2-0.5
	c-0.1-0.1-0.3-0.2-0.5-0.2h-1.4c-0.2,0-0.3,0.1-0.5,0.2c-0.1,0.1-0.2,0.3-0.2,0.5V20c0,0.2,0.1,0.3,0.2,0.5c0.1,0.1,0.3,0.2,0.5,0.2
	h1.4c0.2,0,0.3-0.1,0.5-0.2C24.8,20.4,24.8,20.2,24.8,20z M40.8,38.7H47v-6.9h-6.2V38.7z M32.5,30.4h6.9v-6.2h-6.9V30.4z M40.8,30.4
	H47v-6.2h-6.2V30.4z M41.5,20v-6.2c0-0.2-0.1-0.3-0.2-0.5s-0.3-0.2-0.5-0.2h-1.4c-0.2,0-0.3,0.1-0.5,0.2s-0.2,0.3-0.2,0.5V20
	c0,0.2,0.1,0.3,0.2,0.5c0.1,0.1,0.3,0.2,0.5,0.2h1.4c0.2,0,0.3-0.1,0.5-0.2C41.4,20.4,41.5,20.2,41.5,20z M49.8,18.6v27.7
	c0,0.7-0.3,1.4-0.8,1.9c-0.5,0.5-1.2,0.8-1.9,0.8H16.5c-0.7,0-1.4-0.3-1.9-0.8c-0.5-0.5-0.8-1.2-0.8-1.9V18.6c0-0.8,0.3-1.4,0.8-1.9
	c0.5-0.5,1.2-0.8,1.9-0.8h2.8v-2.1c0-1,0.3-1.8,1-2.4c0.7-0.7,1.5-1,2.4-1h1.4c1,0,1.8,0.3,2.4,1c0.7,0.7,1,1.5,1,2.4v2.1h8.3v-2.1
	c0-1,0.3-1.8,1-2.4c0.7-0.7,1.5-1,2.4-1h1.4c1,0,1.8,0.3,2.4,1c0.7,0.7,1,1.5,1,2.4v2.1H47c0.8,0,1.4,0.3,1.9,0.8
	C49.5,17.2,49.8,17.9,49.8,18.6z"/>
</svg>
