<?xml version="1.0" encoding="utf-8"?>
<!-- Generator: Adobe Illustrator 19.0.0, SVG Export Plug-In . SVG Version: 6.00 Build 0)  -->
<svg version="1.1" baseProfile="tiny" id="Layer_1" xmlns="http://www.w3.org/2000/svg" xmlns:xlink="http://www.w3.org/1999/xlink"
	 x="0px" y="0px" viewBox="0 0 63.6 60.4" xml:space="preserve">
<path id="XMLID_95_" fill="#001835" stroke="#F9DA4F" stroke-miterlimit="10" d="M58.8,57.7H4.5c-1.4,0-2.5-1.1-2.5-2.5v-50
	c0-1.4,1.1-2.5,2.5-2.5h54.3c1.4,0,2.5,1.1,2.5,2.5v50C61.3,56.6,60.2,57.7,58.8,57.7z"/>
<path id="XMLID_13_" fill="#73BF45" d="M17.2,46.3h6.2v-6.2h-6.2V46.3z M24.8,46.3h6.9v-6.2h-6.9V46.3z M17.2,38.7h6.2v-6.9h-6.2
	V38.7z M24.8,38.7h6.9v-6.9h-6.9V38.7z M17.2,30.4h6.2v-6.2h-6.2V30.4z M33.1,46.3h6.9v-6.2h-6.9V46.3z M24.8,30.4h6.9v-6.2h-6.9
	V30.4z M41.5,46.3h6.2v-6.2h-6.2V46.3z M33.1,38.7h6.9v-6.9h-6.9V38.7z M25.5,20v-6.2c0-0.2-0.1-0.3-0.2-0.5
	c-0.1-0.1-0.3-0.2-0.5-0.2h-1.4c-0.2,0-0.3,0.1-0.5,0.2c-0.1,0.1-0.2,0.3-0.2,0.5V20c0,0.2,0.1,0.3,0.2,0.5c0.1,0.1,0.3,0.2,0.5,0.2
	h1.4c0.2,0,0.3-0.1,0.5-0.2C25.5,20.4,25.5,20.2,25.5,20z M41.5,38.7h6.2v-6.9h-6.2V38.7z M33.1,30.4h6.9v-6.2h-6.9V30.4z
	 M41.5,30.4h6.2v-6.2h-6.2V30.4z M42.1,20v-6.2c0-0.2-0.1-0.3-0.2-0.5s-0.3-0.2-0.5-0.2h-1.4c-0.2,0-0.3,0.1-0.5,0.2
	s-0.2,0.3-0.2,0.5V20c0,0.2,0.1,0.3,0.2,0.5s0.3,0.2,0.5,0.2h1.4c0.2,0,0.3-0.1,0.5-0.2S42.1,20.2,42.1,20z M50.5,18.6v27.7
	c0,0.7-0.3,1.4-0.8,1.9c-0.5,0.5-1.2,0.8-1.9,0.8H17.2c-0.8,0-1.4-0.3-1.9-0.8s-0.8-1.2-0.8-1.9V18.6c0-0.8,0.3-1.4,0.8-1.9
	c0.5-0.5,1.2-0.8,1.9-0.8H20v-2.1c0-1,0.3-1.8,1-2.4c0.7-0.7,1.5-1,2.4-1h1.4c1,0,1.8,0.3,2.4,1c0.7,0.7,1,1.5,1,2.4v2.1h8.3v-2.1
	c0-1,0.3-1.8,1-2.4c0.7-0.7,1.5-1,2.4-1h1.4c1,0,1.8,0.3,2.4,1c0.7,0.7,1,1.5,1,2.4v2.1h2.8c0.8,0,1.4,0.3,1.9,0.8
	C50.2,17.2,50.5,17.9,50.5,18.6z"/>
</svg>
