<?xml version="1.0" encoding="utf-8"?>
<!-- Generator: Adobe Illustrator 19.0.0, SVG Export Plug-In . SVG Version: 6.00 Build 0)  -->
<svg version="1.1" baseProfile="tiny" id="Layer_1" xmlns="http://www.w3.org/2000/svg" xmlns:xlink="http://www.w3.org/1999/xlink"
	 x="0px" y="0px" viewBox="0 0 64.7 60.4" xml:space="preserve">
<g id="XMLID_27_">
	<path id="XMLID_472_" fill="#F7F7F8" stroke="#057AFF" stroke-width="0.5" stroke-miterlimit="10" d="M59.7,57.7H5.4
		c-1.4,0-2.5-1.1-2.5-2.5v-50c0-1.4,1.1-2.5,2.5-2.5h54.3c1.4,0,2.5,1.1,2.5,2.5v50C62.2,56.5,61.1,57.7,59.7,57.7z"/>
	<path id="XMLID_439_" fill="#73BF45" d="M39.6,9.2h-12v4h12V9.2z M31.6,35.2h4v-12h-4V35.2z M47.6,21.9l2.8-2.9
		c-0.9-1-1.8-2-2.8-2.8l-2.8,2.9c-3.1-2.5-7-3.9-11.2-3.9c-10,0-18,8.1-18,18s8,18,18,18s18-8.1,18-18C51.6,28.9,50.1,25,47.6,21.9z
		 M33.6,47.2c-7.7,0-14-6.3-14-14s6.3-14,14-14s14,6.3,14,14S41.3,47.2,33.6,47.2z"/>
</g>
</svg>
