<?xml version="1.0" encoding="utf-8"?>
<!-- Generator: Adobe Illustrator 19.0.0, SVG Export Plug-In . SVG Version: 6.00 Build 0)  -->
<svg version="1.1" baseProfile="tiny" id="Layer_1" xmlns="http://www.w3.org/2000/svg" xmlns:xlink="http://www.w3.org/1999/xlink"
	 x="0px" y="0px" viewBox="0 0 63.6 60.4" xml:space="preserve">
<path id="XMLID_19_" fill="#001835" stroke="#F9DA4F" stroke-miterlimit="10" d="M59.2,57.2H4.8c-1.4,0-2.5-1.1-2.5-2.5v-50
	c0-1.4,1.1-2.5,2.5-2.5h54.3c1.4,0,2.5,1.1,2.5,2.5v50C61.7,56.1,60.5,57.2,59.2,57.2z"/>
<path id="XMLID_13_" fill="#73BF45" d="M38,8.7H26v4h12V8.7z M30,34.7h4v-12h-4V34.7z M46.1,21.5l2.8-2.9c-0.9-1-1.8-2-2.8-2.8
	l-2.8,2.9c-3.1-2.5-7-3.9-11.2-3.9c-9.9,0-18,8.1-18,18s8,18,18,18s18-8.1,18-18C50,28.5,48.5,24.6,46.1,21.5z M32,46.7
	c-7.7,0-14-6.3-14-14s6.3-14,14-14s14,6.3,14,14S39.7,46.7,32,46.7z"/>
</svg>
