<?xml version="1.0" encoding="utf-8"?>
<!-- Generator: Adobe Illustrator 19.0.0, SVG Export Plug-In . SVG Version: 6.00 Build 0)  -->
<svg version="1.1" baseProfile="tiny" id="Layer_1" xmlns="http://www.w3.org/2000/svg" xmlns:xlink="http://www.w3.org/1999/xlink"
	 x="0px" y="0px" viewBox="0 0 64.7 60.4" xml:space="preserve">
<path id="XMLID_420_" fill="#F7F7F8" stroke="#057AFF" stroke-width="0.5" stroke-miterlimit="10" d="M59.6,57.7H5.2
	c-1.4,0-2.5-1.1-2.5-2.5v-50c0-1.4,1.1-2.5,2.5-2.5h54.3c1.4,0,2.5,1.1,2.5,2.5v50C62.1,56.6,60.9,57.7,59.6,57.7z"/>
<g id="XMLID_415_">
	<path id="XMLID_416_" fill="#73BF45" d="M38.9,26.1c-0.3-1.4-0.9-2.6-1.6-3.5c3.5-1.7,6-5.2,6-9.3c0-0.9-0.7-1.5-1.5-1.5
		c-2.9,0-5.5,1.2-7.3,3V14c0-0.9-0.7-1.5-1.5-1.5s-1.5,0.7-1.5,1.5v6.8c-2.3,0.6-3.9,2.5-4.5,5.3c-0.5,2.4-0.9,3.3-2.3,4.8
		c-2,2.1-3.3,4.2-3.3,8.1c0,6.2,4.9,10.6,11.6,10.6S44.6,45.1,44.6,39c0-3.9-1.3-6-3.3-8.1C39.8,29.5,39.4,28.5,38.9,26.1z M40.1,15
		c-0.7,2.7-2.7,4.8-5.4,5.4C35.3,17.7,37.4,15.6,40.1,15z M32.9,46.6c-5.1,0-8.6-3.1-8.6-7.6c0-3,0.8-4.3,2.4-6c2-2,2.5-3.6,3.1-6.4
		c0.3-1.4,1.1-3.1,3.1-3.1c2,0,2.8,1.7,3.1,3.1c0.6,2.8,1.1,4.3,3.1,6.4c1.7,1.7,2.4,3,2.4,6C41.5,43.5,38,46.6,32.9,46.6z"/>
</g>
</svg>
