<?xml version="1.0" encoding="utf-8"?>
<!-- Generator: Adobe Illustrator 19.0.0, SVG Export Plug-In . SVG Version: 6.00 Build 0)  -->
<svg version="1.1" baseProfile="tiny" id="Layer_1" xmlns="http://www.w3.org/2000/svg" xmlns:xlink="http://www.w3.org/1999/xlink"
	 x="0px" y="0px" viewBox="0 0 63.6 60.4" xml:space="preserve">
<path id="XMLID_88_" fill="#001835" stroke="#F9DA4F" stroke-miterlimit="10" d="M58.8,57H4.5C3.1,57,2,55.9,2,54.5v-50
	C2,3.1,3.1,2,4.5,2h54.3c1.4,0,2.5,1.1,2.5,2.5v50C61.3,55.9,60.2,57,58.8,57z"/>
<g id="XMLID_85_">
	<path id="XMLID_87_" fill="none" stroke="#73BF45" stroke-width="2" stroke-linecap="round" stroke-miterlimit="10" d="M33.9,18.4
		v-6.8c9.9,0,18,8.1,18,18c0,9.9-8.1,18-18,18s-18-8.1-18-18c0-5,2-9.5,5.3-12.7"/>
	<path id="XMLID_86_" fill="#73BF45" d="M35.5,31.2c-0.9,0.9-2.3,0.9-3.2,0c-0.9-0.9-7.8-11-7.8-11s10.1,6.9,11,7.8
		C36.3,28.9,36.3,30.3,35.5,31.2z"/>
</g>
</svg>
