<?xml version="1.0" encoding="utf-8"?>
<!-- Generator: Adobe Illustrator 19.0.0, SVG Export Plug-In . SVG Version: 6.00 Build 0)  -->
<svg version="1.1" baseProfile="tiny" id="Layer_1" xmlns="http://www.w3.org/2000/svg" xmlns:xlink="http://www.w3.org/1999/xlink"
	 x="0px" y="0px" viewBox="0 0 64.7 60.4" xml:space="preserve">
<path id="XMLID_421_" fill="#F7F7F8" stroke="#057AFF" stroke-width="0.5" stroke-miterlimit="10" d="M59.8,57.4H5.5
	C4.1,57.4,3,56.3,3,55v-50c0-1.4,1.1-2.5,2.5-2.5h54.3c1.4,0,2.5,1.1,2.5,2.5v50C62.3,56.3,61.2,57.4,59.8,57.4z"/>
<g id="XMLID_85_">
	<path id="XMLID_122_" fill="none" stroke="#73BF45" stroke-width="2" stroke-linecap="round" stroke-miterlimit="10" d="M33.9,18.8
		v-6.8c9.9,0,18,8.1,18,18c0,9.9-8.1,18-18,18s-18-8.1-18-18c0-5,2-9.5,5.3-12.7"/>
	<path id="XMLID_89_" fill="#73BF45" d="M35.5,31.7c-0.9,0.9-2.3,0.9-3.2,0c-0.9-0.9-7.8-11-7.8-11s10.1,6.9,11,7.8
		C36.3,29.4,36.3,30.8,35.5,31.7z"/>
</g>
</svg>
