<?xml version="1.0" encoding="utf-8"?>
<!-- Generator: Adobe Illustrator 19.0.0, SVG Export Plug-In . SVG Version: 6.00 Build 0)  -->
<svg version="1.1" id="Layer_1" xmlns="http://www.w3.org/2000/svg" xmlns:xlink="http://www.w3.org/1999/xlink" x="0px" y="0px"
	 viewBox="0 0 44.4 44.4" enable-background="new 0 0 44.4 44.4" xml:space="preserve">
<g id="XMLID_301_">
	<g id="XMLID_873_">
		<path id="XMLID_884_" fill="#FFFFFF" d="M24.9,19.3h6.9c-0.9-3.4-3.5-6-6.9-6.9V19.3z"/>
	</g>
	<g id="XMLID_633_">
		<path id="XMLID_671_" fill="#FFFFFF" d="M24.9,24.1V31c3.4-0.9,6-3.5,6.9-6.9H24.9z"/>
	</g>
	<g id="XMLID_487_">
		<path id="XMLID_499_" fill="#FFFFFF" d="M20,19.3v-6.9c-3.4,0.9-6,3.5-6.9,6.9H20z"/>
	</g>
	<g id="XMLID_347_">
		<path id="XMLID_389_" fill="#FFFFFF" d="M20,24.1h-6.9c0.9,3.4,3.5,6,6.9,6.9V24.1z"/>
	</g>
	<g id="XMLID_302_">
		<path id="XMLID_335_" fill="#76BD44" d="M24.9,7.5c6,1,10.8,5.8,11.8,11.8h4.8c-1.1-8.7-7.9-15.6-16.7-16.7V7.5z"/>
		<path id="XMLID_322_" fill="#76BD44" d="M8.2,19.3C9.2,13.2,14,8.5,20,7.5V2.6C11.3,3.7,4.5,10.6,3.4,19.3H8.2z"/>
		<path id="XMLID_317_" fill="#76BD44" d="M20,35.9c-6-1-10.8-5.8-11.8-11.8H3.4c1.1,8.7,7.9,15.6,16.7,16.7V35.9z"/>
		<path id="XMLID_314_" fill="#76BD44" d="M36.7,24.1c-1,6.1-5.8,10.8-11.8,11.8v4.8c8.7-1.1,15.6-7.9,16.7-16.7H36.7z"/>
	</g>
</g>
</svg>
